# xmcd
#
# Track frame offsets:
#	150
#	22875
#	40537
#	55900
#	66542
#	81535
#	91762
#	114415
#
# Disc length: 1777 seconds
#
# Revision: 2
# Processed by: cddbd v1.4PL0 Copyright (c) Steve Scherf et al.
# Submitted via: EasyCDDAExtractor 4.5.0.2
#
DISCID=5f06ef08
DTITLE=David Allan Coe - Lonesome Fugitive
DYEAR=1900
DGENRE=Country
TTITLE0=If That Ain't Country
TTITLE1=Mona Lisa Lost Her Smile
TTITLE2=Branded Man
TTITLE3=Six Days On The Road
TTITLE4=Lonesome Fugitive
TTITLE5=Rollin' In My Sweet Baby's Arms
TTITLE6=House Of The Rising Sun
TTITLE7=Roll On 18 Wheeler
EXTD=
EXTT0=
EXTT1=
EXTT2=
EXTT3=
EXTT4=
EXTT5=
EXTT6=
EXTT7=
PLAYORDER=
